<?xml version="1.0" standalone="no"?>
<!DOCTYPE svg PUBLIC "-//W3C//DTD SVG 20010904//EN"
 "http://www.w3.org/TR/2001/REC-SVG-20010904/DTD/svg10.dtd">
<svg version="1.0" xmlns="http://www.w3.org/2000/svg"
 width="256.000000pt" height="79.000000pt" viewBox="0 0 256.000000 79.000000"
 preserveAspectRatio="xMidYMid meet">
<metadata>
Created by potrace 1.16, written by Peter Selinger 2001-2019
</metadata>
<g transform="translate(0.000000,79.000000) scale(0.100000,-0.100000)"
fill="#000000" stroke="none">
<path d="M0 395 l0 -395 1280 0 1280 0 0 183 c0 174 -1 181 -18 160 -23 -31
-75 -40 -106 -19 -14 8 -39 37 -57 63 -38 55 -46 63 -75 63 -45 0 -54 -27 -54
-168 0 -148 15 -207 56 -223 13 -4 24 -15 24 -24 0 -13 -24 -15 -170 -15 -146
0 -170 2 -170 15 0 9 11 20 24 27 39 17 56 74 56 191 0 125 -11 169 -52 200
-17 14 -28 29 -24 35 3 5 30 13 60 16 29 4 78 14 107 21 77 21 89 20 89 -10 0
-14 2 -25 4 -25 2 0 24 11 47 25 83 47 194 28 239 -40 l20 -30 0 173 0 172
-1280 0 -1280 0 0 -395z m600 360 c59 -31 69 -107 21 -156 -71 -71 -192 1
-161 95 22 67 80 92 140 61z m430 -111 l0 -126 23 7 c12 5 52 10 88 12 53 4
75 0 107 -16 162 -83 176 -357 24 -465 -60 -43 -122 -46 -202 -10 -56 25 -65
26 -94 15 -94 -39 -195 -51 -203 -24 -3 6 9 19 25 27 47 24 52 56 52 308 0
250 -7 288 -57 311 -42 19 -26 34 53 46 41 7 94 19 117 26 70 22 67 28 67
-111z m-734 1 c3 -14 4 -35 1 -48 -8 -31 4 -47 42 -52 18 -2 35 -6 38 -9 12
-12 -11 -26 -43 -26 l-34 0 0 -185 c0 -159 2 -186 16 -192 8 -3 20 -1 27 6 16
16 37 13 37 -6 0 -26 -46 -79 -83 -97 -68 -32 -135 -13 -170 47 -8 15 -14 89
-17 222 l-5 200 -30 3 c-50 5 -59 10 -45 27 7 8 22 15 35 15 34 0 142 58 167
90 29 36 56 38 64 5z m354 -329 l5 -218 33 -27 c57 -48 48 -52 -135 -49 -168
3 -202 11 -148 36 42 19 55 67 55 200 0 137 -10 176 -52 198 -16 8 -28 20 -25
27 2 6 45 18 95 27 50 9 95 19 99 24 4 4 21 6 38 4 l30 -3 5 -219z m1202 194
c79 -52 110 -155 66 -220 -33 -50 -80 -70 -161 -70 -83 0 -98 -18 -49 -61 39
-35 91 -45 151 -30 67 17 73 17 78 3 8 -20 -61 -78 -113 -96 -108 -37 -223 -9
-296 72 -37 41 -68 120 -68 172 0 53 30 127 70 172 56 65 108 87 201 88 68 0
80 -3 121 -30z"/>
<path d="M1052 467 c-37 -44 -20 -205 34 -314 39 -82 67 -105 93 -79 24 25 21
162 -7 252 -23 74 -73 154 -96 154 -7 0 -18 -6 -24 -13z"/>
<path d="M1739 457 c-43 -28 -79 -98 -79 -152 1 -35 2 -37 12 -20 21 39 54 67
110 96 59 30 79 59 58 84 -18 22 -62 18 -101 -8z"/>
</g>
</svg>
